<svg width="14" height="14" viewBox="0 0 14 14" fill="none" xmlns="http://www.w3.org/2000/svg">
<path d="M13.4052 6.83091C13.4052 6.28144 13.3596 5.88047 13.2608 5.46466H6.83936V7.94469H10.6086C10.5326 8.56101 10.1223 9.48918 9.21033 10.1129L9.19755 10.1959L11.2279 11.7328L11.3686 11.7465C12.6604 10.5807 13.4052 8.86543 13.4052 6.83091Z" fill="#4285F4"/>
<path d="M6.83938 13.3655C8.686 13.3655 10.2362 12.7715 11.3686 11.7468L9.21036 10.1132C8.63282 10.5068 7.85767 10.7815 6.83938 10.7815C5.03075 10.7815 3.4957 9.61575 2.94849 8.00446L2.86828 8.01111L0.757101 9.60756L0.729492 9.68255C1.85418 11.8656 4.16439 13.3655 6.83938 13.3655Z" fill="#34A853"/>
<path d="M2.94852 8.00443C2.80413 7.58862 2.72057 7.14307 2.72057 6.68272C2.72057 6.22232 2.80413 5.77682 2.94092 5.36101L2.9371 5.27245L0.799459 3.65036L0.72952 3.68287C0.26598 4.58877 0 5.60605 0 6.68272C0 7.75939 0.26598 8.77663 0.72952 9.68253L2.94852 8.00443Z" fill="#FBBC05"/>
<path d="M6.83939 2.58399C8.12365 2.58399 8.98996 3.12604 9.48394 3.57901L11.4142 1.73752C10.2287 0.660856 8.686 0 6.83939 0C4.16439 0 1.85418 1.4999 0.729492 3.68293L2.94089 5.36107C3.4957 3.74978 5.03075 2.58399 6.83939 2.58399Z" fill="#EB4335"/>
</svg>
