<svg width="25" height="25" viewBox="0 0 25 25" fill="none" xmlns="http://www.w3.org/2000/svg">
<path d="M17.8333 10.2917C17.2476 9.70598 16.4533 9.37695 15.625 9.37695C14.7967 9.37695 14.0024 9.70598 13.4167 10.2917C12.831 10.8774 12.5019 11.6717 12.5019 12.5C12.5019 13.3283 12.831 14.1226 13.4167 14.7083C13.7067 14.9983 14.051 15.2284 14.4299 15.3853C14.8088 15.5423 15.2149 15.6231 15.625 15.6231C16.0351 15.6231 16.4412 15.5423 16.8201 15.3853C17.199 15.2284 17.5433 14.9983 17.8333 14.7083C18.1233 14.4183 18.3534 14.074 18.5103 13.6951C18.6673 13.3162 18.7481 12.9101 18.7481 12.5C18.7481 12.0899 18.6673 11.6838 18.5103 11.3049C18.3534 10.926 18.1233 10.5817 17.8333 10.2917ZM7.29167 6.25V18.75H23.9583V6.25H7.29167ZM21.875 14.5833C21.3229 14.5833 20.7917 14.8021 20.4062 15.1979C20.0104 15.5833 19.7917 16.1146 19.7917 16.6667H11.4583C11.4583 16.1146 11.2396 15.5833 10.8437 15.1979C10.4583 14.8021 9.92708 14.5833 9.375 14.5833V10.4167C9.92708 10.4167 10.4583 10.1979 10.8437 9.80208C11.2396 9.41667 11.4583 8.88542 11.4583 8.33333H19.7917C19.7917 8.88542 20.0104 9.41667 20.4062 9.80208C20.7917 10.1979 21.3229 10.4167 21.875 10.4167V14.5833ZM5.20833 8.33333H3.125C2.55208 8.33333 2.08333 7.86458 2.08333 7.29167C2.08333 6.71875 2.55208 6.25 3.125 6.25H5.20833V8.33333ZM5.20833 13.5417H2.08333C1.51042 13.5417 1.04167 13.0729 1.04167 12.5C1.04167 11.9271 1.51042 11.4583 2.08333 11.4583H5.20833V13.5417ZM5.20833 18.75H1.04167C0.466667 18.75 0 18.2812 0 17.7083C0 17.1354 0.466667 16.6667 1.04167 16.6667H5.20833V18.75Z" fill="#00A8E1"/>
</svg>
