<svg width="19" height="19" viewBox="0 0 19 19" fill="none" xmlns="http://www.w3.org/2000/svg">
<path d="M9.50004 9.10415C8.97513 9.10415 8.47172 8.89563 8.10056 8.52446C7.72939 8.1533 7.52087 7.64989 7.52087 7.12498C7.52087 6.60007 7.72939 6.09666 8.10056 5.7255C8.47172 5.35433 8.97513 5.14581 9.50004 5.14581C10.0249 5.14581 10.5284 5.35433 10.8995 5.7255C11.2707 6.09666 11.4792 6.60007 11.4792 7.12498C11.4792 7.38489 11.428 7.64225 11.3286 7.88237C11.2291 8.1225 11.0833 8.34068 10.8995 8.52446C10.7157 8.70824 10.4976 8.85403 10.2574 8.95349C10.0173 9.05295 9.75995 9.10415 9.50004 9.10415ZM9.50004 1.58331C8.0303 1.58331 6.62075 2.16717 5.58149 3.20643C4.54223 4.24569 3.95837 5.65524 3.95837 7.12498C3.95837 11.2812 9.50004 17.4166 9.50004 17.4166C9.50004 17.4166 15.0417 11.2812 15.0417 7.12498C15.0417 5.65524 14.4579 4.24569 13.4186 3.20643C12.3793 2.16717 10.9698 1.58331 9.50004 1.58331Z" fill="#00A8E1"/>
</svg>
