<svg width="22" height="18" viewBox="0 0 22 18" fill="none" xmlns="http://www.w3.org/2000/svg">
<path d="M17.7125 7.70625L16.9542 9.86625H18.1675C18.005 9.12375 17.8533 8.415 17.7125 7.70625ZM17.7125 7.70625L16.9542 9.86625H18.1675C18.005 9.12375 17.8533 8.415 17.7125 7.70625ZM18.4167 0H3.25C2.38805 0 1.5614 0.355579 0.951903 0.988515C0.34241 1.62145 0 2.47989 0 3.375V14.625C0 15.5201 0.34241 16.3786 0.951903 17.0115C1.5614 17.6444 2.38805 18 3.25 18H18.4167C19.2786 18 20.1053 17.6444 20.7148 17.0115C21.3243 16.3786 21.6667 15.5201 21.6667 14.625V3.375C21.6667 2.47989 21.3243 1.62145 20.7148 0.988515C20.1053 0.355579 19.2786 0 18.4167 0ZM5.96917 11.97H4.7125C4.60417 11.97 4.56083 11.97 4.53917 11.8238C4.1275 10.2038 3.72667 8.5725 3.315 6.9525C3.30897 6.90946 3.29301 6.86858 3.26849 6.83332C3.24397 6.79806 3.21161 6.76948 3.17417 6.75C2.75875 6.50953 2.31917 6.31712 1.86333 6.17625L1.74417 6.08625C1.79106 6.08308 1.83811 6.08308 1.885 6.08625H4.05167C4.14276 6.07366 4.23538 6.08093 4.32361 6.10761C4.41184 6.13428 4.49374 6.17978 4.56409 6.24118C4.63443 6.30259 4.69167 6.37855 4.73215 6.46423C4.77263 6.5499 4.79545 6.6434 4.79917 6.73875L5.41667 9.97875V10.0575L5.47083 9.9225L6.77083 6.17625C6.77876 6.13338 6.80237 6.09537 6.83671 6.0702C6.87105 6.04502 6.91345 6.03465 6.955 6.04125H8.40667C8.40667 6.0975 8.40667 6.1425 8.3525 6.1875L6.11 11.8125C6.10312 11.8498 6.08627 11.8844 6.06137 11.9123C6.03646 11.9401 6.00451 11.9601 5.96917 11.97ZM8.13583 11.97C8.43917 9.99 8.75333 8.02125 9.05667 6.06375H10.5408C10.2239 8.03081 9.91696 9.99959 9.62 11.97H8.13583ZM14.0833 11.4187C13.65 11.7675 13.1332 11.9812 12.5883 12.0375C11.8815 12.1149 11.1672 12.0106 10.5083 11.7338C10.5842 11.295 10.66 10.8562 10.725 10.4175L10.8875 10.5075C11.4381 10.8014 12.0695 10.8888 12.675 10.755C12.9133 10.6988 13.13 10.5975 13.1733 10.3162C13.1843 10.1987 13.1587 10.0806 13.1002 9.97933C13.0417 9.87807 12.9534 9.79899 12.8483 9.75375C12.6317 9.6075 12.4042 9.50625 12.1875 9.36C11.9242 9.19978 11.6805 9.00714 11.4617 8.78625C11.2357 8.50975 11.1117 8.1589 11.1117 7.79625C11.1117 7.4336 11.2357 7.08275 11.4617 6.80625C11.7867 6.42938 12.22 6.1695 12.6967 6.06375C13.4124 5.86427 14.1704 5.90363 14.8633 6.17625H14.9283C14.8525 6.5925 14.7875 7.00875 14.7225 7.39125C14.4443 7.30915 14.1622 7.24156 13.8775 7.18875C13.5965 7.16016 13.3135 7.16016 13.0325 7.18875C12.9306 7.20953 12.8366 7.2603 12.7617 7.335C12.7252 7.36668 12.6959 7.40626 12.6758 7.45097C12.6557 7.49567 12.6453 7.54441 12.6453 7.59375C12.6453 7.64309 12.6557 7.69183 12.6758 7.73653C12.6959 7.78124 12.7252 7.82082 12.7617 7.8525C12.8917 7.97475 13.0325 8.07975 13.1842 8.1675C13.4658 8.3475 13.7583 8.505 14.0292 8.69625C14.2537 8.83634 14.4403 9.03327 14.5716 9.26861C14.703 9.50395 14.7747 9.77003 14.7801 10.042C14.7855 10.3139 14.7244 10.5828 14.6026 10.8236C14.4807 11.0644 14.3021 11.2691 14.0833 11.4187ZM18.5358 11.9587C18.5358 11.7 18.4383 11.4525 18.395 11.205C18.3517 10.9575 18.3408 11.0813 18.2542 11.0813H16.6075C16.5734 11.0776 16.5391 11.087 16.5112 11.1077C16.4833 11.1284 16.4636 11.159 16.4558 11.1937C16.38 11.4187 16.3042 11.6438 16.2175 11.8688C16.2076 11.8916 16.1927 11.9117 16.1738 11.9274C16.155 11.943 16.1328 11.9538 16.1092 11.9587H14.6467L14.7008 11.8238L16.8675 6.49125C16.9072 6.36722 16.9824 6.25873 17.083 6.18032C17.1837 6.1019 17.3051 6.05731 17.4308 6.0525H18.7417C19.1425 8.02125 19.5325 9.99 19.9333 11.9587H18.5358ZM17.6692 7.695L16.9108 9.855H18.1242C17.9833 9.12375 17.8317 8.415 17.6908 7.70625L17.6692 7.695Z" fill="#00A8E1"/>
</svg>
