<svg width="18" height="17" viewBox="0 0 18 17" fill="none" xmlns="http://www.w3.org/2000/svg">
<path fill-rule="evenodd" clip-rule="evenodd" d="M17.3415 12.8333C17.3732 12.8321 17.4047 12.8383 17.4336 12.8515C17.4624 12.8647 17.4877 12.8845 17.5075 12.9093C17.5272 12.9342 17.5408 12.9633 17.5472 12.9944C17.5535 13.0254 17.5525 13.0576 17.5441 13.0882C17.3607 13.7408 17.0683 14.2982 16.5999 14.7657C15.9133 15.4532 15.0434 15.7566 13.9691 15.9014C12.9241 16.0417 11.5903 16.0417 9.9055 16.0417H7.9695C6.28467 16.0417 4.95 16.0417 3.90592 15.9014C2.83158 15.7566 1.96167 15.4522 1.27508 14.7666C0.589417 14.08 0.285083 13.2101 0.14025 12.1357C1.09275e-07 11.0907 0 9.757 0 8.07217V7.9695C0 6.28467 1.09275e-07 4.95 0.14025 3.905C0.285083 2.83067 0.589417 1.96075 1.27508 1.27417C1.96167 0.5885 2.83158 0.284167 3.90592 0.139333C4.95092 -4.09782e-08 6.28467 0 7.9695 0H9.9055C11.5903 0 12.925 1.09275e-07 13.9691 0.14025C15.0434 0.285083 15.9133 0.589416 16.5999 1.27508C17.0683 1.74442 17.3607 2.30083 17.5441 2.9535C17.5525 2.98409 17.5535 3.01622 17.5472 3.04729C17.5408 3.07836 17.5272 3.1075 17.5075 3.13232C17.4877 3.15715 17.4624 3.17697 17.4336 3.19018C17.4047 3.20339 17.3732 3.20961 17.3415 3.20833H15.0278C12.4272 3.20833 10.1356 5.26167 10.1356 8.02083C10.1356 10.78 12.4272 12.8333 15.0278 12.8333H17.3415ZM3.4375 3.66667C3.25516 3.66667 3.0803 3.7391 2.95136 3.86803C2.82243 3.99696 2.75 4.17183 2.75 4.35417C2.75 4.5365 2.82243 4.71137 2.95136 4.8403C3.0803 4.96923 3.25516 5.04167 3.4375 5.04167H7.10417C7.2865 5.04167 7.46137 4.96923 7.5903 4.8403C7.71923 4.71137 7.79167 4.5365 7.79167 4.35417C7.79167 4.17183 7.71923 3.99696 7.5903 3.86803C7.46137 3.7391 7.2865 3.66667 7.10417 3.66667H3.4375Z" fill="#00A8E1"/>
</svg>
