<svg width="21" height="24" viewBox="0 0 21 24" fill="none" xmlns="http://www.w3.org/2000/svg">
<path fill-rule="evenodd" clip-rule="evenodd" d="M16.9789 16.457C17.2344 16.3292 17.5279 16.2996 17.8038 16.3737C18.0797 16.4479 18.3188 16.6208 18.4757 16.8595L18.5434 16.9785L20.8767 21.6452C20.96 21.8116 21.0022 21.9955 20.9999 22.1816C20.9976 22.3677 20.9508 22.5505 20.8635 22.7148C20.7761 22.8791 20.6507 23.0201 20.4978 23.1261C20.3448 23.2321 20.1687 23.2999 19.9842 23.324L19.8337 23.3333H1.16704C0.980924 23.3334 0.797492 23.2889 0.632064 23.2036C0.466636 23.1184 0.324012 22.9947 0.216103 22.8431C0.108194 22.6914 0.0381319 22.5162 0.011766 22.3319C-0.0146 22.1477 0.00349594 21.9598 0.0645428 21.784L0.122876 21.644L2.45621 16.9773C2.58699 16.707 2.81697 16.4975 3.09829 16.3925C3.37961 16.2874 3.69061 16.2949 3.96656 16.4133C4.24252 16.5318 4.46217 16.7521 4.57983 17.0283C4.69748 17.3046 4.70406 17.6156 4.59821 17.8967L4.54338 18.0215L3.05471 21H17.946L16.4574 18.0215C16.3192 17.7449 16.2965 17.4247 16.3943 17.1313C16.4921 16.838 16.7024 16.5954 16.9789 16.457ZM10.5004 0C12.6663 0 14.7435 0.860414 16.2751 2.39196C17.8066 3.92351 18.667 6.00073 18.667 8.16667C18.667 10.9457 17.1632 13.2032 15.6069 14.805C14.7473 15.6783 13.8022 16.4631 12.7859 17.1477L12.3507 17.4347L11.9634 17.6785L11.7895 17.7835L11.4897 17.9562C10.8737 18.3062 10.127 18.3062 9.51104 17.9562L9.21121 17.7823L8.84954 17.5618L8.65004 17.4347L8.21488 17.1477C7.19855 16.4631 6.25348 15.6783 5.39388 14.805C3.83754 13.2032 2.33371 10.9457 2.33371 8.16667C2.33371 6.00073 3.19412 3.92351 4.72567 2.39196C6.25722 0.860414 8.33444 0 10.5004 0ZM10.5004 5.83333C9.88154 5.83333 9.28804 6.07917 8.85046 6.51675C8.41288 6.95434 8.16704 7.54783 8.16704 8.16667C8.16704 8.78551 8.41288 9.379 8.85046 9.81658C9.28804 10.2542 9.88154 10.5 10.5004 10.5C11.1192 10.5 11.7127 10.2542 12.1503 9.81658C12.5879 9.379 12.8337 8.78551 12.8337 8.16667C12.8337 7.54783 12.5879 6.95434 12.1503 6.51675C11.7127 6.07917 11.1192 5.83333 10.5004 5.83333Z" fill="#00A8E1"/>
</svg>
