<svg width="16" height="16" viewBox="0 0 16 16" fill="none" xmlns="http://www.w3.org/2000/svg">
<g clip-path="url(#clip0_54_3667)">
<path d="M8.00007 16C9.68355 15.9984 11.3152 15.4176 12.6211 14.3551C13.927 13.2926 14.8275 11.8132 15.1715 10.1653C15.5156 8.51731 15.2821 6.80116 14.5104 5.30498C13.7386 3.8088 12.4756 2.6237 10.9334 1.94867C10.8531 1.91311 10.7665 1.89377 10.6787 1.89177C10.5909 1.88977 10.5035 1.90515 10.4217 1.93702C10.3398 1.96888 10.2651 2.01661 10.2017 2.07747C10.1383 2.13832 10.0876 2.21109 10.0525 2.2916C10.0174 2.37211 9.99849 2.45877 9.99695 2.5466C9.99541 2.63443 10.0112 2.7217 10.0435 2.80339C10.0758 2.88508 10.124 2.95958 10.1852 3.02261C10.2463 3.08564 10.3194 3.13596 10.4001 3.17067C11.6634 3.72205 12.6984 4.69162 13.331 5.91634C13.9636 7.14107 14.1551 8.54626 13.8735 9.89562C13.5919 11.245 12.8542 12.4562 11.7846 13.3257C10.7149 14.1951 9.37851 14.6698 8.00007 14.6698C6.62162 14.6698 5.28522 14.1951 4.21556 13.3257C3.14591 12.4562 2.40825 11.245 2.12662 9.89562C1.845 8.54626 2.03657 7.14107 2.66915 5.91634C3.30172 4.69162 4.3367 3.72205 5.60006 3.17067C5.68076 3.13596 5.7538 3.08564 5.81498 3.02261C5.87616 2.95958 5.92429 2.88508 5.95659 2.80339C5.98888 2.7217 6.00472 2.63443 6.00318 2.5466C6.00164 2.45877 5.98276 2.37211 5.94762 2.2916C5.91249 2.21109 5.86178 2.13832 5.79843 2.07747C5.73508 2.01661 5.66032 1.96888 5.57846 1.93702C5.4966 1.90515 5.40925 1.88977 5.32143 1.89177C5.23361 1.89377 5.14705 1.91311 5.06673 1.94867C3.5245 2.6237 2.26149 3.8088 1.48975 5.30498C0.71802 6.80116 0.484566 8.51731 0.828592 10.1653C1.17262 11.8132 2.07317 13.2926 3.37904 14.3551C4.68491 15.4176 6.31658 15.9984 8.00007 16Z" fill="white"/>
<path d="M8.00003 6.66666C8.17684 6.66666 8.34641 6.59642 8.47143 6.4714C8.59646 6.34637 8.66669 6.17681 8.66669 6V0.666666C8.66669 0.489855 8.59646 0.320286 8.47143 0.195262C8.34641 0.0702379 8.17684 0 8.00003 0C7.82323 0 7.65366 0.0702379 7.52863 0.195262C7.40361 0.320286 7.33337 0.489855 7.33337 0.666666V6C7.33337 6.17681 7.40361 6.34637 7.52863 6.4714C7.65366 6.59642 7.82323 6.66666 8.00003 6.66666Z" fill="white"/>
</g>
<defs>
<clipPath id="clip0_54_3667">
<rect width="16" height="16" fill="white"/>
</clipPath>
</defs>
</svg>
