<svg width="20" height="20" viewBox="0 0 20 20" fill="none" xmlns="http://www.w3.org/2000/svg">
<path d="M13.7363 3.33008C15.4744 3.33008 16.6647 4.09545 17.3882 5.14792C18.0823 6.15761 18.315 7.37782 18.315 8.32508L18.3085 8.56409C18.2434 9.75973 17.7002 10.9302 17.0045 11.9738C16.2542 13.0992 15.2687 14.1621 14.3078 15.0697C13.3433 15.9805 12.3821 16.7552 11.6639 17.3004C11.3044 17.5734 11.004 17.79 10.7925 17.9395C10.6866 18.0142 10.6024 18.0722 10.5445 18.1119C10.5156 18.1317 10.4934 18.1476 10.4778 18.1582C10.4699 18.1635 10.4635 18.1675 10.4591 18.1704C10.457 18.1717 10.4542 18.1736 10.4542 18.1736L10.4526 18.1745L10.4518 18.1752C10.207 18.3385 9.89735 18.3588 9.63636 18.2362L9.52822 18.1752L9.52739 18.1745L9.52581 18.1736C9.52581 18.1736 9.52298 18.1717 9.52089 18.1704C9.51657 18.1675 9.51007 18.1635 9.50225 18.1582C9.4866 18.1476 9.46445 18.1317 9.43556 18.1119C9.37762 18.0722 9.29346 18.0142 9.18756 17.9395C8.97602 17.79 8.67557 17.5734 8.31607 17.3004C7.59789 16.7552 6.63672 15.9805 5.67223 15.0697C4.71126 14.1621 3.72586 13.0992 2.97555 11.9738C2.23354 10.8608 1.66501 9.60338 1.66501 8.32508C1.66501 7.37782 1.89771 6.15761 2.59181 5.14792C3.31539 4.09545 4.50563 3.33008 6.24376 3.33008C8.05922 3.33008 9.26565 4.28266 9.99001 5.26905C10.7144 4.28266 11.9208 3.33008 13.7363 3.33008ZM13.7363 4.99508C11.949 4.99508 11.023 6.49275 10.7908 7.30477H9.18923C8.95704 6.49275 8.031 4.99508 6.24376 4.99508C5.06823 4.99508 4.38526 5.47853 3.96414 6.09099C3.51362 6.74628 3.33001 7.60739 3.33001 8.32508C3.33001 9.12802 3.69804 10.0559 4.36088 11.0502C5.01537 12.0319 5.90318 12.9985 6.81529 13.8599C7.72375 14.7178 8.63595 15.4524 9.32251 15.9737C9.58208 16.1707 9.80936 16.3359 9.99001 16.4655C10.1707 16.3359 10.3979 16.1707 10.6575 15.9737C11.3441 15.4524 12.2562 14.7178 13.1647 13.8599C14.0768 12.9985 14.9646 12.0319 15.6191 11.0502C16.282 10.0559 16.65 9.12802 16.65 8.32508L16.6411 8.05029C16.5998 7.39563 16.4102 6.66447 16.0159 6.09099C15.5947 5.47853 14.9118 4.99508 13.7363 4.99508Z" fill="#4A5565"/>
</svg>
