<svg width="13" height="13" viewBox="0 0 13 13" fill="none" xmlns="http://www.w3.org/2000/svg">
<path d="M12.4505 5.78019L12.2771 5.9463L12.0936 5.77296L12.2542 5.6213C12.4671 5.42092 12.5919 5.15194 12.6036 4.86829C12.6152 4.58465 12.5129 4.30733 12.3171 4.09197C12.1213 3.8766 11.8465 3.73911 11.5479 3.70708C11.2492 3.67504 10.9488 3.75084 10.7068 3.91926V0.722222C10.7062 0.530853 10.6254 0.347485 10.4821 0.212165C10.3389 0.0768461 10.1447 0.00057154 9.94203 0H0.764772C0.562128 0.00057154 0.367957 0.0768461 0.224665 0.212165C0.0813735 0.347485 0.000605213 0.530853 0 0.722222V12.2778C0.000605213 12.4691 0.0813735 12.6525 0.224665 12.7878C0.367957 12.9232 0.562128 12.9994 0.764772 13H9.94203C10.1447 12.9994 10.3389 12.9232 10.4821 12.7878C10.6254 12.6525 10.7062 12.4691 10.7068 12.2778V8.11056L12.8125 6.12204C12.8605 6.0767 12.8875 6.01522 12.8875 5.95111C12.8875 5.887 12.8605 5.82552 12.8125 5.78019C12.7645 5.73485 12.6994 5.70939 12.6315 5.70939C12.5636 5.70939 12.4985 5.73485 12.4505 5.78019ZM10.197 7.91074L9.8987 8.19241C9.85535 8.23285 9.8289 8.2867 9.82421 8.34407C9.81952 8.40144 9.8369 8.45849 9.87317 8.50474C9.90943 8.55098 9.96214 8.58332 10.0216 8.59582C10.0811 8.60832 10.1434 8.60014 10.197 8.57278V12.2778C10.197 12.3416 10.1701 12.4029 10.1223 12.448C10.0745 12.4932 10.0096 12.5185 9.94203 12.5185H0.764772C0.697162 12.5185 0.632321 12.4932 0.584513 12.448C0.536706 12.4029 0.509848 12.3416 0.509848 12.2778V0.722222C0.509848 0.658374 0.536706 0.59714 0.584513 0.551993C0.632321 0.506845 0.697162 0.481481 0.764772 0.481481H9.94203C10.0096 0.481481 10.0745 0.506845 10.1223 0.551993C10.1701 0.59714 10.197 0.658374 10.197 0.722222V4.38148C9.12628 5.39259 5.42478 8.88815 5.42223 8.89296C5.35009 8.96109 5.29783 8.996 5.27948 9.08796C5.27336 9.11204 4.93278 10.5772 4.93278 10.6022L4.67531 10.8454C4.6273 10.8907 4.60033 10.9522 4.60033 11.0163C4.60033 11.0804 4.6273 11.1419 4.67531 11.1872C4.72331 11.2326 4.78841 11.258 4.8563 11.258C4.92419 11.258 4.98929 11.2326 5.0373 11.1872L5.29732 10.9417C5.33683 10.9417 6.86077 10.6251 6.89824 10.6167C7.01423 10.5909 7.02341 10.5635 7.10728 10.4843L10.197 7.56407V7.91074ZM5.64657 9.49963L6.46232 10.27C5.61954 10.4465 6.10237 10.3463 5.41968 10.4843C5.56066 9.86146 5.50636 10.0969 5.64657 9.49963ZM6.94158 9.96185L5.97542 9.04945C6.05444 8.97096 9.65142 5.57531 9.733 5.49852L10.6992 6.41093C10.5574 6.54406 7.06139 9.84269 6.94158 9.96185ZM10.7068 7.42926V7.08259C11.5634 6.2737 11.3393 6.48483 11.7341 6.11481L11.9177 6.28574L10.7068 7.42926ZM11.8922 5.28185C11.465 5.68533 11.6516 5.50863 11.0612 6.06907H11.0586L10.0975 5.15907C10.2456 5.01583 10.1016 5.15257 10.9286 4.37185C11.0568 4.25319 11.2294 4.1871 11.409 4.18796C11.5885 4.18881 11.7604 4.25654 11.8874 4.37642C12.0143 4.49631 12.086 4.65866 12.0869 4.8282C12.0878 4.99774 12.0179 5.16076 11.8922 5.28185Z" fill="white"/>
</svg>
