<svg width="20" height="20" viewBox="0 0 20 20" fill="none" xmlns="http://www.w3.org/2000/svg">
<g clip-path="url(#clip0_83_1856)">
<path d="M10 0C4.47721 0 0 4.47721 0 10C0 15.5228 4.47721 20 10 20C15.5228 20 20 15.5228 20 10C19.9938 4.47982 15.5202 0.00618492 10 0ZM18.6486 13.5033L15.8047 13.994C16.1302 12.8001 16.306 11.5705 16.328 10.3333H19.325C19.2874 11.4215 19.0584 12.4946 18.6486 13.5033ZM0.674967 10.3333H3.67204C3.69401 11.5705 3.86979 12.8001 4.19531 13.994L1.3514 13.5033C0.941569 12.4946 0.712565 11.4215 0.674967 10.3333ZM1.3514 6.49675L4.19531 6.00602C3.86979 7.19987 3.69401 8.42953 3.67204 9.66667H0.674967C0.712565 8.57845 0.941569 7.50537 1.3514 6.49675ZM10.3333 5.35205C11.5311 5.36735 12.7259 5.4764 13.9067 5.67839L15.0833 5.88135C15.4448 7.11149 15.6393 8.3846 15.6616 9.66667H10.3333V5.35205ZM14.0203 5.02132C12.8021 4.81315 11.5692 4.70068 10.3333 4.68538V0.685384C12.2443 0.868978 13.9043 2.61865 14.8451 5.16504L14.0203 5.02132ZM9.66667 4.68538C8.43083 4.70068 7.19824 4.81315 5.97998 5.02132L5.15495 5.16406C6.0957 2.61702 7.7557 0.866699 9.66667 0.683919V4.68538ZM6.09359 5.67839C7.27425 5.4764 8.46891 5.36735 9.66667 5.35205V9.66667H4.33838C4.36068 8.3846 4.55518 7.11149 4.91667 5.88135L6.09359 5.67839ZM4.33838 10.3333H9.66667V14.6479C8.46891 14.6327 7.27409 14.5236 6.09326 14.3216L4.91667 14.1187C4.55518 12.8885 4.36068 11.6154 4.33838 10.3333ZM5.97966 14.9787C7.19792 15.1872 8.43066 15.3001 9.66667 15.3164V19.3164C7.7557 19.1327 6.0957 17.383 5.15495 14.8366L5.97966 14.9787ZM10.3333 15.3164C11.5692 15.3001 12.8018 15.1872 14.02 14.9787L14.8451 14.8359C13.9043 17.383 12.2443 19.1333 10.3333 19.3161V15.3164ZM13.9064 14.3216C12.7257 14.5236 11.5311 14.6327 10.3333 14.6479V10.3333H15.6616C15.6393 11.6154 15.4448 12.8885 15.0833 14.1187L13.9064 14.3216ZM16.328 9.66667C16.306 8.42953 16.1302 7.19987 15.8047 6.00602L18.6486 6.49675C19.0584 7.50537 19.2874 8.57845 19.325 9.66667H16.328ZM18.3114 5.76204L15.5853 5.29167C15.0952 3.69287 14.1784 2.25798 12.9333 1.1416C15.2616 1.91862 17.1924 3.57731 18.3114 5.76204ZM7.06673 1.1416C5.82161 2.25798 4.90479 3.69287 4.41471 5.29167L1.68864 5.76204C2.80762 3.57731 4.73844 1.91862 7.06673 1.1416ZM1.68864 14.238L4.41471 14.7083C4.90479 16.3071 5.82161 17.742 7.06673 18.8584C4.73844 18.0814 2.80762 16.4227 1.68864 14.238ZM12.9333 18.8584C14.1784 17.742 15.0952 16.3071 15.5853 14.7083L18.3114 14.238C17.1924 16.4227 15.2616 18.0814 12.9333 18.8584Z" fill="#4A5565"/>
</g>
<defs>
<clipPath id="clip0_83_1856">
<rect width="20" height="20" fill="white"/>
</clipPath>
</defs>
</svg>
