<svg width="20" height="20" viewBox="0 0 20 20" fill="none" xmlns="http://www.w3.org/2000/svg">
<path d="M16.6483 8.32409C16.6483 12.4803 12.0375 16.8089 10.4892 18.1457C10.345 18.2542 10.1694 18.3128 9.98895 18.3128C9.80849 18.3128 9.63291 18.2542 9.48867 18.1457C7.94038 16.8089 3.32965 12.4803 3.32965 8.32409C3.32965 6.55794 4.03125 4.86412 5.28011 3.61526C6.52898 2.3664 8.22279 1.66479 9.98895 1.66479C11.7551 1.66479 13.4489 2.3664 14.6978 3.61526C15.9466 4.86412 16.6483 6.55794 16.6483 8.32409Z" stroke="#4A5565" stroke-width="1.66482" stroke-linecap="round" stroke-linejoin="round"/>
<path d="M9.98894 10.8214C11.3681 10.8214 12.4862 9.70333 12.4862 8.32414C12.4862 6.94496 11.3681 5.8269 9.98894 5.8269C8.60975 5.8269 7.4917 6.94496 7.4917 8.32414C7.4917 9.70333 8.60975 10.8214 9.98894 10.8214Z" stroke="#4A5565" stroke-width="1.66482" stroke-linecap="round" stroke-linejoin="round"/>
</svg>
