<svg width="17" height="17" viewBox="0 0 17 17" fill="none" xmlns="http://www.w3.org/2000/svg">
<g clip-path="url(#clip0_54_3614)">
<path d="M11.4883 10.5918C11.3049 10.5918 11.1562 10.7404 11.1562 10.9238V13.2148C11.1562 14.1303 10.4115 14.875 9.49609 14.875H5.91122C5.7279 14.875 5.57932 15.0235 5.57919 15.2068L5.57872 15.8669L4.78623 15.0745C4.73493 14.9567 4.61753 14.875 4.48172 14.875H2.32422C1.40881 14.875 0.664062 14.1303 0.664062 13.2148V8.10156C0.664062 7.18615 1.40881 6.44141 2.32422 6.44141H5.67773C5.86108 6.44141 6.00977 6.29276 6.00977 6.10938C6.00977 5.92599 5.86108 5.77734 5.67773 5.77734H2.32422C1.04264 5.77734 0 6.81999 0 8.10156V13.2148C0 14.4964 1.04264 15.5391 2.32422 15.5391H4.31169L5.67538 16.9027C5.73889 16.9663 5.82379 17 5.91022 17C5.95296 17 5.99609 16.9917 6.03709 16.9748C6.16117 16.9234 6.24209 16.8024 6.24219 16.6682L6.24298 15.5391H9.49609C10.7777 15.5391 11.8203 14.4964 11.8203 13.2148V10.9238C11.8203 10.7404 11.6716 10.5918 11.4883 10.5918Z" fill="white"/>
<path d="M12.1741 0H11.3338C8.67272 0 6.50781 2.16491 6.50781 4.82594C6.50781 7.48697 8.67272 9.65185 11.3337 9.65185H12.1741C12.5894 9.65185 13.0005 9.59909 13.3989 9.49483L14.6403 10.7355C14.7038 10.799 14.7887 10.8327 14.8751 10.8327C14.9179 10.8327 14.961 10.8244 15.0021 10.8074C15.1261 10.756 15.207 10.6349 15.207 10.5007V8.57965C15.7326 8.15402 16.1692 7.61637 16.4756 7.01572C16.8236 6.33353 17 5.59679 17 4.82594C17 2.16491 14.8351 0 12.1741 0ZM14.6752 8.15253C14.592 8.21525 14.543 8.31347 14.543 8.41776V9.6994L13.7305 8.88732C13.6672 8.82416 13.5824 8.79013 13.4957 8.79013C13.4632 8.79013 13.4303 8.79494 13.3982 8.80481C13.003 8.92626 12.5912 8.98782 12.1741 8.98782H11.3338C9.03885 8.98782 7.17188 7.12081 7.17188 4.82594C7.17188 2.53107 9.03889 0.664063 11.3338 0.664063H12.1741C14.469 0.664063 16.3359 2.53107 16.3359 4.82594C16.3359 6.14514 15.7306 7.35765 14.6752 8.15253Z" fill="white"/>
<path d="M13.2492 3.6331C13.2013 2.93799 12.6409 2.37765 11.9458 2.32974C11.5517 2.30268 11.1757 2.43559 10.8878 2.70431C10.604 2.9693 10.4412 3.3439 10.4412 3.73208C10.4412 3.91546 10.5898 4.06411 10.7732 4.06411C10.9565 4.06411 11.1052 3.91546 11.1052 3.73208C11.1052 3.52426 11.189 3.33165 11.341 3.18977C11.4928 3.04803 11.6913 2.97787 11.9002 2.99228C12.2663 3.01751 12.5615 3.31265 12.5867 3.67878C12.6122 4.04857 12.3696 4.37535 12.0099 4.45584C11.7184 4.52105 11.5149 4.77432 11.5149 5.07172V5.86943C11.5149 6.05281 11.6636 6.20146 11.8469 6.20146C12.0303 6.20146 12.1789 6.05281 12.1789 5.86943V5.09825C12.848 4.93662 13.2968 4.32442 13.2492 3.6331Z" fill="white"/>
<path d="M12.0817 6.94811C12.0199 6.88636 11.9342 6.85083 11.8469 6.85083C11.7596 6.85083 11.6739 6.88636 11.6122 6.94811C11.5504 7.00987 11.5149 7.09554 11.5149 7.18286C11.5149 7.27052 11.5505 7.35618 11.6122 7.41794C11.6739 7.4797 11.7596 7.51489 11.8469 7.51489C11.9342 7.51489 12.0199 7.4797 12.0817 7.41794C12.1434 7.35585 12.179 7.27052 12.179 7.18286C12.179 7.09554 12.1434 7.00987 12.0817 6.94811Z" fill="white"/>
<path d="M9.13086 10.293H2.125C1.94165 10.293 1.79297 10.4416 1.79297 10.625C1.79297 10.8084 1.94165 10.957 2.125 10.957H9.13086C9.31424 10.957 9.46289 10.8084 9.46289 10.625C9.46289 10.4416 9.31421 10.293 9.13086 10.293Z" fill="white"/>
<path d="M9.36557 12.2496C9.30385 12.1879 9.21818 12.1523 9.13086 12.1523C9.04354 12.1523 8.95787 12.1879 8.89611 12.2496C8.83432 12.3114 8.79883 12.3971 8.79883 12.4844C8.79883 12.5717 8.83436 12.6574 8.89611 12.7191C8.95787 12.7809 9.04354 12.8164 9.13086 12.8164C9.21818 12.8164 9.30385 12.7809 9.36557 12.7191C9.42736 12.6574 9.46289 12.572 9.46289 12.4844C9.46289 12.3971 9.42733 12.3114 9.36557 12.2496Z" fill="white"/>
<path d="M7.82488 12.1523H2.125C1.94165 12.1523 1.79297 12.301 1.79297 12.4844C1.79297 12.6678 1.94165 12.8164 2.125 12.8164H7.82488C8.00826 12.8164 8.15691 12.6678 8.15691 12.4844C8.15691 12.301 8.00823 12.1523 7.82488 12.1523Z" fill="white"/>
<path d="M6.97266 8.43359H2.125C1.94165 8.43359 1.79297 8.58224 1.79297 8.76562C1.79297 8.94901 1.94165 9.09766 2.125 9.09766H6.97266C7.15604 9.09766 7.30469 8.94901 7.30469 8.76562C7.30469 8.58224 7.156 8.43359 6.97266 8.43359Z" fill="white"/>
</g>
<defs>
<clipPath id="clip0_54_3614">
<rect width="17" height="17" fill="white"/>
</clipPath>
</defs>
</svg>
