<svg width="22" height="27" viewBox="0 0 22 27" fill="none" xmlns="http://www.w3.org/2000/svg">
<path fill-rule="evenodd" clip-rule="evenodd" d="M0.903417 0.903417C-9.18905e-08 1.80683 0 3.25908 0 6.16667V20.0417C0 22.9493 -9.18905e-08 24.4015 0.903417 25.3049C1.80683 26.2083 3.25908 26.2083 6.16667 26.2083H15.4167C18.3243 26.2083 19.7765 26.2083 20.6799 25.3049C21.5833 24.4015 21.5833 22.9493 21.5833 20.0417V6.16667C21.5833 3.25908 21.5833 1.80683 20.6799 0.903417C19.7765 -9.18905e-08 18.3243 0 15.4167 0H6.16667C3.25908 0 1.80683 -9.18905e-08 0.903417 0.903417ZM6.16667 6.16667C5.75779 6.16667 5.36566 6.32909 5.07654 6.61821C4.78743 6.90733 4.625 7.29946 4.625 7.70833C4.625 8.11721 4.78743 8.50934 5.07654 8.79846C5.36566 9.08757 5.75779 9.25 6.16667 9.25H15.4167C15.8255 9.25 16.2177 9.08757 16.5068 8.79846C16.7959 8.50934 16.9583 8.11721 16.9583 7.70833C16.9583 7.29946 16.7959 6.90733 16.5068 6.61821C16.2177 6.32909 15.8255 6.16667 15.4167 6.16667H6.16667ZM6.16667 12.3333C5.75779 12.3333 5.36566 12.4958 5.07654 12.7849C4.78743 13.074 4.625 13.4661 4.625 13.875C4.625 14.2839 4.78743 14.676 5.07654 14.9651C5.36566 15.2542 5.75779 15.4167 6.16667 15.4167H15.4167C15.8255 15.4167 16.2177 15.2542 16.5068 14.9651C16.7959 14.676 16.9583 14.2839 16.9583 13.875C16.9583 13.4661 16.7959 13.074 16.5068 12.7849C16.2177 12.4958 15.8255 12.3333 15.4167 12.3333H6.16667ZM6.16667 18.5C5.75779 18.5 5.36566 18.6624 5.07654 18.9515C4.78743 19.2407 4.625 19.6328 4.625 20.0417C4.625 20.4505 4.78743 20.8427 5.07654 21.1318C5.36566 21.4209 5.75779 21.5833 6.16667 21.5833H12.3333C12.7422 21.5833 13.1343 21.4209 13.4235 21.1318C13.7126 20.8427 13.875 20.4505 13.875 20.0417C13.875 19.6328 13.7126 19.2407 13.4235 18.9515C13.1343 18.6624 12.7422 18.5 12.3333 18.5H6.16667Z" fill="#00A8E1"/>
</svg>
