<svg width="20" height="20" viewBox="0 0 20 20" fill="none" xmlns="http://www.w3.org/2000/svg">
<path d="M16.6483 10.8215C16.6483 14.9835 13.7348 17.0646 10.272 18.2716C10.0906 18.333 9.89367 18.3301 9.71425 18.2632C6.24309 17.0646 3.32965 14.9835 3.32965 10.8215V4.99458C3.32965 4.77381 3.41735 4.56208 3.57346 4.40597C3.72957 4.24986 3.94129 4.16216 4.16206 4.16216C5.82689 4.16216 7.90792 3.16327 9.35632 1.898C9.53267 1.74733 9.757 1.66455 9.98895 1.66455C10.2209 1.66455 10.4452 1.74733 10.6216 1.898C12.0783 3.17159 14.151 4.16216 15.8158 4.16216C16.0366 4.16216 16.2483 4.24986 16.4044 4.40597C16.5606 4.56208 16.6483 4.77381 16.6483 4.99458V10.8215Z" stroke="#4A5565" stroke-width="1.66482" stroke-linecap="round" stroke-linejoin="round"/>
</svg>
