<svg width="17" height="16" viewBox="0 0 17 16" fill="none" xmlns="http://www.w3.org/2000/svg">
<path d="M13.9333 9.8673C14.225 9.15897 14.3833 8.40063 14.3833 7.5673C14.3833 6.9673 14.2917 6.3923 14.1333 5.85896C13.5917 5.98396 13.025 6.05063 12.4333 6.05063C11.2216 6.05193 10.0274 5.7619 8.95127 5.20498C7.87515 4.64807 6.94869 3.84059 6.25 2.85063C5.5033 4.65958 4.0931 6.1145 2.30833 6.9173C2.275 7.12563 2.275 7.35063 2.275 7.5673C2.275 8.36289 2.4317 9.15069 2.73616 9.88572C3.04062 10.6208 3.48688 11.2886 4.04944 11.8512C5.1856 12.9873 6.72656 13.6256 8.33333 13.6256C9.20833 13.6256 10.05 13.434 10.8083 13.0923C11.2833 14.0006 11.5 14.4506 11.4833 14.4506C10.1167 14.909 9.05833 15.134 8.33333 15.134C6.31667 15.134 4.39167 14.3423 2.975 12.9173C2.11254 12.0589 1.47189 11.0035 1.10833 9.8423H0V6.05063H0.908333C1.18353 4.71106 1.81624 3.47097 2.73932 2.46196C3.66241 1.45294 4.84142 0.712637 6.15127 0.319596C7.46112 -0.0734444 8.85295 -0.104559 10.1791 0.229553C11.5052 0.563666 12.7161 1.25054 13.6833 2.2173C14.7332 3.26361 15.4494 4.59754 15.7417 6.05063H16.6667V9.8423H16.6167L13.65 12.5673L9.23333 12.0673V10.6756H13.2583L13.9333 9.8673ZM6.05833 7.37563C6.30833 7.37563 6.55 7.47563 6.725 7.65896C6.90087 7.83627 6.99956 8.07589 6.99956 8.32563C6.99956 8.57537 6.90087 8.81499 6.725 8.9923C6.55 9.1673 6.30833 9.2673 6.05833 9.2673C5.53333 9.2673 5.10833 8.85063 5.10833 8.32563C5.10833 7.80063 5.53333 7.37563 6.05833 7.37563ZM10.6 7.37563C11.125 7.37563 11.5417 7.80063 11.5417 8.32563C11.5417 8.85063 11.125 9.2673 10.6 9.2673C10.075 9.2673 9.65 8.85063 9.65 8.32563C9.65 8.07368 9.75009 7.83204 9.92825 7.65388C10.1064 7.47572 10.348 7.37563 10.6 7.37563Z" fill="white"/>
</svg>
