<svg width="20" height="20" viewBox="0 0 20 20" fill="none" xmlns="http://www.w3.org/2000/svg">
<path d="M12.4862 1.66479H4.99448C4.55294 1.66479 4.12948 1.8402 3.81727 2.15241C3.50505 2.46463 3.32965 2.88808 3.32965 3.32962V16.6482C3.32965 17.0898 3.50505 17.5132 3.81727 17.8254C4.12948 18.1376 4.55294 18.313 4.99448 18.313H14.9834C15.425 18.313 15.8484 18.1376 16.1606 17.8254C16.4728 17.5132 16.6483 17.0898 16.6483 16.6482V5.82686L12.4862 1.66479Z" stroke="#4A5565" stroke-width="1.66482" stroke-linecap="round" stroke-linejoin="round"/>
<path d="M11.6538 1.66479V4.99444C11.6538 5.43598 11.8292 5.85944 12.1414 6.17165C12.4536 6.48387 12.8771 6.65927 13.3186 6.65927H16.6483" stroke="#4A5565" stroke-width="1.66482" stroke-linecap="round" stroke-linejoin="round"/>
<path d="M8.32413 7.4917H6.6593" stroke="#4A5565" stroke-width="1.66482" stroke-linecap="round" stroke-linejoin="round"/>
<path d="M13.3186 10.8213H6.6593" stroke="#4A5565" stroke-width="1.66482" stroke-linecap="round" stroke-linejoin="round"/>
<path d="M13.3186 14.1511H6.6593" stroke="#4A5565" stroke-width="1.66482" stroke-linecap="round" stroke-linejoin="round"/>
</svg>
