<svg width="20" height="20" viewBox="0 0 20 20" fill="none" xmlns="http://www.w3.org/2000/svg">
<path d="M5.82751 12.4874V7.49243" stroke="#4A5565" stroke-width="1.3" stroke-linecap="round" stroke-linejoin="round"/>
<path d="M17.3437 7.49243H15.1771C13.6917 7.49243 12.4875 8.61056 12.4875 9.98993C12.4875 11.3693 13.6917 12.4874 15.1771 12.4874H17.3437C17.4131 12.4874 17.4478 12.4874 17.4771 12.4857C17.926 12.4583 18.2836 12.1263 18.3131 11.7094C18.315 11.6822 18.315 11.6499 18.315 11.5856V8.39428C18.315 8.32993 18.315 8.29768 18.3131 8.27049C18.2836 7.8536 17.926 7.52154 17.4771 7.49421C17.4478 7.49243 17.4131 7.49243 17.3437 7.49243Z" stroke="#4A5565" stroke-width="1.3"/>
<path d="M17.4534 7.49258C17.3887 5.93389 17.18 4.97822 16.5072 4.30541C15.5319 3.33008 13.962 3.33008 10.8225 3.33008H8.32501C5.18545 3.33008 3.61568 3.33008 2.64034 4.30541C1.66501 5.28075 1.66501 6.85052 1.66501 9.99008C1.66501 13.1296 1.66501 14.6994 2.64034 15.6747C3.61568 16.6501 5.18545 16.6501 8.32501 16.6501H10.8225C13.962 16.6501 15.5319 16.6501 16.5072 15.6747C17.18 15.002 17.3887 14.0463 17.4534 12.4876" stroke="#4A5565" stroke-width="1.3"/>
<path d="M14.9777 9.98999H14.9852" stroke="#4A5565" stroke-width="2.5" stroke-linecap="round" stroke-linejoin="round"/>
</svg>
