<svg width="27" height="25" viewBox="0 0 27 25" fill="none" xmlns="http://www.w3.org/2000/svg">
<path fill-rule="evenodd" clip-rule="evenodd" d="M26.0122 19.25C26.0598 19.2481 26.1071 19.2574 26.1504 19.2772C26.1936 19.297 26.2316 19.3268 26.2612 19.364C26.2908 19.4013 26.3112 19.445 26.3207 19.4916C26.3303 19.5382 26.3287 19.5864 26.3161 19.6322C26.0411 20.6112 25.6025 21.4473 24.8999 22.1485C23.87 23.1798 22.5651 23.6349 20.9536 23.8521C19.3861 24.0625 17.3855 24.0625 14.8582 24.0625H11.9543C9.427 24.0625 7.425 24.0625 5.85888 23.8521C4.24738 23.6349 2.9425 23.1784 1.91263 22.1499C0.884125 21.12 0.427625 19.8151 0.210375 18.2036C1.63913e-07 16.6361 0 14.6355 0 12.1082V11.9543C0 9.427 1.63913e-07 7.425 0.210375 5.8575C0.427625 4.246 0.884125 2.94112 1.91263 1.91125C2.9425 0.88275 4.24738 0.42625 5.85888 0.209C7.42638 -6.14673e-08 9.427 0 11.9543 0H14.8582C17.3855 0 19.3875 1.63913e-07 20.9536 0.210375C22.5651 0.427625 23.87 0.884125 24.8999 1.91262C25.6025 2.61662 26.0411 3.45125 26.3161 4.43025C26.3287 4.47613 26.3303 4.52433 26.3207 4.57094C26.3112 4.61755 26.2908 4.66125 26.2612 4.69849C26.2316 4.73573 26.1936 4.76546 26.1504 4.78527C26.1071 4.80508 26.0598 4.81441 26.0122 4.8125H22.5417C18.6409 4.8125 15.2034 7.8925 15.2034 12.0312C15.2034 16.17 18.6409 19.25 22.5417 19.25H26.0122ZM5.15625 5.5C4.88275 5.5 4.62044 5.60865 4.42705 5.80205C4.23365 5.99544 4.125 6.25775 4.125 6.53125C4.125 6.80475 4.23365 7.06706 4.42705 7.26045C4.62044 7.45385 4.88275 7.5625 5.15625 7.5625H10.6562C10.9298 7.5625 11.1921 7.45385 11.3855 7.26045C11.5788 7.06706 11.6875 6.80475 11.6875 6.53125C11.6875 6.25775 11.5788 5.99544 11.3855 5.80205C11.1921 5.60865 10.9298 5.5 10.6562 5.5H5.15625Z" fill="#00A8E1"/>
</svg>
