<svg width="24" height="24" viewBox="0 0 24 24" fill="none" xmlns="http://www.w3.org/2000/svg">
<path opacity="0.5" d="M9.99981 2C9.53568 2 9.09056 2.18437 8.76237 2.51256C8.43419 2.84075 8.24981 3.28587 8.24981 3.75C8.24981 4.21413 8.43419 4.65925 8.76237 4.98744C9.09056 5.31563 9.53568 5.5 9.99981 5.5H13.9998C14.4639 5.5 14.9091 5.31563 15.2372 4.98744C15.5654 4.65925 15.7498 4.21413 15.7498 3.75C15.7498 3.28587 15.5654 2.84075 15.2372 2.51256C14.9091 2.18437 14.4639 2 13.9998 2H9.99981ZM3.86281 16.205C3.00481 12.773 2.57581 11.058 3.47681 9.904C4.37781 8.75 6.14681 8.75 9.68381 8.75H14.3138C17.8518 8.75 19.6208 8.75 20.5218 9.904C21.4228 11.058 20.9938 12.774 20.1358 16.205C19.5898 18.388 19.3168 19.479 18.5028 20.115C17.6898 20.75 16.5648 20.75 14.3148 20.75H9.68481C7.43481 20.75 6.30881 20.75 5.49481 20.115C4.68181 19.479 4.40881 18.388 3.86281 16.205Z" fill="#4C4C4C"/>
<path d="M15.5798 4.502C15.6922 4.26782 15.7507 4.01146 15.751 3.75173C15.7514 3.49199 15.6936 3.23548 15.5818 3.001C16.2648 3.006 16.7978 3.037 17.2738 3.223C17.8421 3.44527 18.3363 3.82301 18.6998 4.313C19.0668 4.807 19.2398 5.44 19.4758 6.311L19.5228 6.481L20.0348 9.445C19.6268 9.163 19.0998 8.995 18.4178 8.895L18.0568 6.808C17.7728 5.768 17.6698 5.441 17.4958 5.207C17.3 4.94311 17.0339 4.73968 16.7278 4.62C16.5078 4.534 16.2418 4.509 15.5798 4.502ZM8.41784 3C8.30597 3.23461 8.24808 3.49131 8.24843 3.75123C8.24878 4.01115 8.30735 4.26769 8.41984 4.502C7.75784 4.509 7.49184 4.534 7.27184 4.62C6.96581 4.73968 6.69966 4.94311 6.50384 5.207C6.32984 5.441 6.22684 5.768 5.94384 6.807L5.58184 8.896C4.90084 8.996 4.37384 9.163 3.96484 9.444L4.47684 6.482L4.52384 6.312C4.76084 5.44 4.93384 4.806 5.29984 4.312C5.66357 3.82238 6.15774 3.445 6.72584 3.223C7.20184 3.037 7.73384 3.005 8.41784 3ZM8.74984 12.75C8.74984 12.5511 8.67083 12.3603 8.53017 12.2197C8.38952 12.079 8.19876 12 7.99984 12C7.80093 12 7.61017 12.079 7.46951 12.2197C7.32886 12.3603 7.24984 12.5511 7.24984 12.75V16.75C7.24984 16.9489 7.32886 17.1397 7.46951 17.2803C7.61017 17.421 7.80093 17.5 7.99984 17.5C8.19876 17.5 8.38952 17.421 8.53017 17.2803C8.67083 17.1397 8.74984 16.9489 8.74984 16.75V12.75ZM15.9998 12C16.1988 12 16.3895 12.079 16.5302 12.2197C16.6708 12.3603 16.7498 12.5511 16.7498 12.75V16.75C16.7498 16.9489 16.6708 17.1397 16.5302 17.2803C16.3895 17.421 16.1988 17.5 15.9998 17.5C15.8009 17.5 15.6102 17.421 15.4695 17.2803C15.3289 17.1397 15.2498 16.9489 15.2498 16.75V12.75C15.2498 12.5511 15.3289 12.3603 15.4695 12.2197C15.6102 12.079 15.8009 12 15.9998 12ZM12.7498 12.75C12.7498 12.5511 12.6708 12.3603 12.5302 12.2197C12.3895 12.079 12.1988 12 11.9998 12C11.8009 12 11.6102 12.079 11.4695 12.2197C11.3289 12.3603 11.2498 12.5511 11.2498 12.75V16.75C11.2498 16.9489 11.3289 17.1397 11.4695 17.2803C11.6102 17.421 11.8009 17.5 11.9998 17.5C12.1988 17.5 12.3895 17.421 12.5302 17.2803C12.6708 17.1397 12.7498 16.9489 12.7498 16.75V12.75Z" fill="#4C4C4C"/>
</svg>
