<svg width="24" height="24" viewBox="0 0 24 24" fill="none" xmlns="http://www.w3.org/2000/svg">
<path d="M10.5001 18.75H21.0001V20.25H10.5001V18.75ZM5.37756 19.5L3.44256 21.435L4.50006 22.5L7.50006 19.5L4.50006 16.5L3.43506 17.5575L5.37756 19.5ZM10.5001 11.25H21.0001V12.75H10.5001V11.25ZM5.37756 12L3.44256 13.935L4.50006 15L7.50006 12L4.50006 9L3.43506 10.0575L5.37756 12ZM10.5001 3.75H21.0001V5.25H10.5001V3.75ZM5.37756 4.5L3.44256 6.435L4.50006 7.5L7.50006 4.5L4.50006 1.5L3.43506 2.5575L5.37756 4.5Z" fill="#4C4C4C"/>
</svg>
