<svg width="24" height="18" viewBox="0 0 24 18" fill="none" xmlns="http://www.w3.org/2000/svg">
<path fill-rule="evenodd" clip-rule="evenodd" d="M2.70833 17.8685C1.99004 17.8685 1.30116 17.5832 0.793252 17.0752C0.285341 16.5673 0 15.8785 0 15.1602V2.70833C0 1.99004 0.285341 1.30116 0.793252 0.793252C1.30116 0.285341 1.99004 0 2.70833 0H15.3985C16.1168 0 16.8057 0.285341 17.3136 0.793252C17.8215 1.30116 18.1068 1.99004 18.1068 2.70833V5.47083L21.4901 3.45367C21.7367 3.30639 22.018 3.22713 22.3053 3.22397C22.5926 3.22081 22.8755 3.29386 23.1254 3.43568C23.3752 3.5775 23.583 3.78302 23.7275 4.03129C23.8721 4.27957 23.9482 4.56172 23.9482 4.849V13.0228C23.9481 13.3099 23.8719 13.5918 23.7274 13.84C23.5829 14.0881 23.3753 14.2935 23.1256 14.4353C22.876 14.5771 22.5932 14.6502 22.3061 14.6471C22.019 14.6441 21.7378 14.5651 21.4912 14.4181L18.1057 12.4009V15.1602C18.1057 15.8785 17.8204 16.5673 17.3125 17.0752C16.8046 17.5832 16.1157 17.8685 15.3974 17.8685H2.70833ZM5.98975 9.59725C5.9475 9.49923 5.88635 9.41049 5.8098 9.3361C5.73326 9.26171 5.64281 9.20313 5.54362 9.16369C5.44443 9.12426 5.33845 9.10475 5.23172 9.10627C5.12499 9.1078 5.0196 9.13033 4.92158 9.17258C4.82356 9.21484 4.73482 9.27598 4.66043 9.35253C4.58604 9.42908 4.52746 9.51953 4.48803 9.61872C4.44859 9.7179 4.42908 9.82389 4.43061 9.93062C4.43213 10.0373 4.45466 10.1427 4.49692 10.2408C4.88025 11.1315 5.51623 11.8905 6.32622 12.4237C7.13622 12.957 8.08473 13.2411 9.0545 13.2411C10.0243 13.2411 10.9728 12.957 11.7828 12.4237C12.5928 11.8905 13.2288 11.1315 13.6121 10.2408C13.6543 10.1427 13.6769 10.0373 13.6784 9.93062C13.6799 9.82389 13.6604 9.7179 13.621 9.61872C13.5815 9.51953 13.523 9.42908 13.4486 9.35253C13.3742 9.27598 13.2854 9.21484 13.1874 9.17258C13.0894 9.13033 12.984 9.1078 12.8773 9.10627C12.7706 9.10475 12.6646 9.12426 12.5654 9.16369C12.4662 9.20313 12.3757 9.26171 12.2992 9.3361C12.2226 9.41049 12.1615 9.49923 12.1193 9.59725C11.8614 10.1962 11.4337 10.7065 10.8891 11.065C10.3444 11.4235 9.70658 11.6146 9.0545 11.6146C8.40242 11.6146 7.76463 11.4235 7.21995 11.065C6.67527 10.7065 6.24759 10.1962 5.98975 9.59725ZM5.46758 7.046C5.79699 7.046 6.11291 6.91514 6.34584 6.68221C6.57877 6.44929 6.70963 6.13337 6.70963 5.80396C6.70963 5.47455 6.57877 5.15863 6.34584 4.9257C6.11291 4.69277 5.79699 4.56192 5.46758 4.56192C5.13817 4.56192 4.82226 4.69277 4.58933 4.9257C4.3564 5.15863 4.22554 5.47455 4.22554 5.80396C4.22554 6.13337 4.3564 6.44929 4.58933 6.68221C4.82226 6.91514 5.13817 7.046 5.46758 7.046ZM13.8829 5.80342C13.8829 6.13283 13.7521 6.44874 13.5191 6.68167C13.2862 6.9146 12.9703 7.04546 12.6409 7.04546C12.3115 7.04546 11.9955 6.9146 11.7626 6.68167C11.5297 6.44874 11.3988 6.13283 11.3988 5.80342C11.3988 5.47401 11.5297 5.15809 11.7626 4.92516C11.9955 4.69223 12.3115 4.56138 12.6409 4.56138C12.9703 4.56138 13.2862 4.69223 13.5191 4.92516C13.7521 5.15809 13.8829 5.47401 13.8829 5.80342Z" fill="#4C4C4C"/>
</svg>
