<svg width="24" height="23" viewBox="0 0 24 23" fill="none" xmlns="http://www.w3.org/2000/svg">
<path d="M23.3684 10.4297L13.748 0.745942C13.7356 0.733482 13.7229 0.721382 13.7098 0.709652C12.6593 -0.233558 11.0719 -0.236928 10.0174 0.701852C10.0043 0.713532 9.99159 0.725582 9.97917 0.737952L0.271077 10.4269C-0.0898433 10.7872 -0.0904433 11.3718 0.269787 11.7327C0.630067 12.0936 1.21466 12.0942 1.57553 11.734L2.30827 11.0027V18.9747C2.30827 21.0112 3.96506 22.668 6.00151 22.668H9.32542C9.83536 22.668 10.2487 22.2546 10.2487 21.7447V14.2197H13.4803V21.7447C13.4803 22.2546 13.8937 22.668 14.4036 22.668H17.6352C19.6716 22.668 21.3284 21.0112 21.3284 18.9747C21.3284 18.4648 20.9151 18.0514 20.4051 18.0514C19.8952 18.0514 19.4818 18.4648 19.4818 18.9747C19.4818 19.993 18.6534 20.8214 17.6352 20.8214H15.3269V13.2964C15.3269 12.7864 14.9136 12.3731 14.4036 12.3731H9.32542C8.81548 12.3731 8.40211 12.7864 8.40211 13.2964V20.8214H6.00151C4.98328 20.8214 4.15489 19.993 4.15489 18.9747V9.18765C4.15489 9.17842 4.15475 9.16923 4.15447 9.16009L11.2619 2.06672C11.6078 1.77297 12.1151 1.77408 12.4597 2.06926L19.4818 9.13765V14.3582C19.4818 14.8681 19.8952 15.2815 20.4051 15.2815C20.9151 15.2815 21.3284 14.8681 21.3284 14.3582V10.9964L22.0584 11.7312C22.2389 11.9129 22.4761 12.0038 22.7134 12.0038C22.9487 12.0038 23.1841 11.9144 23.3642 11.7355C23.7259 11.3761 23.7278 10.7915 23.3684 10.4297H23.3684Z" fill="#00A8E1"/>
</svg>
