<svg width="24" height="23" viewBox="0 0 24 23" fill="none" xmlns="http://www.w3.org/2000/svg">
<g clip-path="url(#clip0_25_1105)">
<g clip-path="url(#clip1_25_1105)">
<path d="M23.7317 10.4297L14.1112 0.745942C14.0989 0.733482 14.0861 0.721382 14.0731 0.709652C13.0226 -0.233558 11.4352 -0.236928 10.3807 0.701852C10.3676 0.713532 10.3549 0.725582 10.3424 0.737952L0.634358 10.4269C0.273438 10.7872 0.272838 11.3718 0.633068 11.7327C0.993348 12.0936 1.57794 12.0942 1.93881 11.734L2.67155 11.0027V18.9747C2.67155 21.0112 4.32834 22.668 6.36479 22.668H9.6887C10.1986 22.668 10.612 22.2546 10.612 21.7447V14.2197H13.8436V21.7447C13.8436 22.2546 14.257 22.668 14.7669 22.668H17.9985C20.0349 22.668 21.6917 21.0112 21.6917 18.9747C21.6917 18.4648 21.2783 18.0514 20.7684 18.0514C20.2585 18.0514 19.8451 18.4648 19.8451 18.9747C19.8451 19.993 19.0167 20.8214 17.9985 20.8214H15.6902V13.2964C15.6902 12.7864 15.2768 12.3731 14.7669 12.3731H9.6887C9.17876 12.3731 8.76539 12.7864 8.76539 13.2964V20.8214H6.36479C5.34656 20.8214 4.51817 19.993 4.51817 18.9747V9.18765C4.51817 9.17842 4.51803 9.16923 4.51775 9.16009L11.6251 2.06672C11.9711 1.77297 12.4784 1.77408 12.823 2.06926L19.8451 9.13765V14.3582C19.8451 14.8681 20.2585 15.2815 20.7684 15.2815C21.2783 15.2815 21.6917 14.8681 21.6917 14.3582V10.9964L22.4217 11.7312C22.6021 11.9129 22.8393 12.0038 23.0767 12.0038C23.312 12.0038 23.5473 11.9144 23.7274 11.7355C24.0892 11.3761 24.0911 10.7915 23.7317 10.4297H23.7317Z" fill="#35035C"/>
</g>
</g>
<defs>
<clipPath id="clip0_25_1105">
<rect width="24" height="23" fill="white"/>
</clipPath>
<clipPath id="clip1_25_1105">
<rect width="23.6367" height="22.668" fill="white" transform="translate(0.363281)"/>
</clipPath>
</defs>
</svg>
