<svg width="24" height="24" viewBox="0 0 24 24" fill="none" xmlns="http://www.w3.org/2000/svg">
<path fill-rule="evenodd" clip-rule="evenodd" d="M11.6666 1.28186e-10C13.1987 -7.18156e-06 14.7158 0.301754 16.1313 0.888055C17.5468 1.47436 18.8329 2.33371 19.9163 3.41706C20.9996 4.50041 21.859 5.78654 22.4453 7.202C23.0316 8.61747 23.3334 10.1346 23.3334 11.6666C23.3334 18.11 18.11 23.3334 11.6666 23.3334C5.22337 23.3334 0 18.11 0 11.6666C0 5.22337 5.22337 1.28186e-10 11.6666 1.28186e-10ZM12.8334 12.8334H10.5C7.61168 12.8334 5.13198 14.5826 4.06246 17.0797C5.75471 19.4527 8.52999 21 11.6666 21C14.8033 21 17.5786 19.4527 19.2709 17.0796C18.2014 14.5826 15.7217 12.8334 12.8334 12.8334ZM11.6666 3.5C9.73366 3.5 8.16665 5.06702 8.16665 7C8.16665 8.93299 9.73366 10.5 11.6666 10.5C13.5996 10.5 15.1666 8.93299 15.1666 7C15.1666 5.06702 13.5997 3.5 11.6666 3.5Z" fill="#4C4C4C"/>
</svg>
