<svg width="24" height="24" viewBox="0 0 24 24" fill="none" xmlns="http://www.w3.org/2000/svg">
<path d="M21 12C21.0028 13.7867 20.4714 15.5335 19.474 17.016C18.6514 18.243 17.5391 19.2484 16.2356 19.9433C14.932 20.6382 13.4772 21.0011 12 21C10.5228 21.0011 9.06804 20.6382 7.76444 19.9433C6.46085 19.2484 5.34858 18.243 4.526 17.016C3.74273 15.8484 3.2439 14.5135 3.06951 13.1184C2.89511 11.7233 3.05 10.3067 3.52175 8.98227C3.9935 7.6578 4.769 6.46228 5.78607 5.49154C6.80314 4.52081 8.0335 3.80186 9.37851 3.39233C10.7235 2.9828 12.1458 2.89408 13.5312 3.13329C14.9167 3.3725 16.2269 3.93299 17.3567 4.76981C18.4865 5.60663 19.4046 6.69651 20.0373 7.95209C20.67 9.20767 20.9997 10.594 21 12Z" stroke="#4C4C4C" stroke-width="1.5"/>
<path d="M13.2501 9C13.2501 9.69 12.6901 10.25 12.0001 10.25V11.75C12.7294 11.75 13.4289 11.4603 13.9446 10.9445C14.4603 10.4288 14.7501 9.72935 14.7501 9H13.2501ZM12.0001 10.25C11.3101 10.25 10.7501 9.69 10.7501 9H9.25008C9.25008 9.72935 9.53981 10.4288 10.0555 10.9445C10.5713 11.4603 11.2707 11.75 12.0001 11.75V10.25ZM10.7501 9C10.7501 8.31 11.3101 7.75 12.0001 7.75V6.25C11.2707 6.25 10.5713 6.53973 10.0555 7.05546C9.53981 7.57118 9.25008 8.27065 9.25008 9H10.7501ZM12.0001 7.75C12.6901 7.75 13.2501 8.31 13.2501 9H14.7501C14.7501 8.27065 14.4603 7.57118 13.9446 7.05546C13.4289 6.53973 12.7294 6.25 12.0001 6.25V7.75ZM5.16608 17.856L4.44708 17.642L4.33008 18.034L4.59708 18.344L5.16608 17.856ZM18.8341 17.856L19.4041 18.345L19.6701 18.035L19.5531 17.642L18.8341 17.856ZM9.00008 15.75H15.0001V14.25H9.00008V15.75ZM9.00008 14.25C7.9771 14.2497 6.98136 14.5797 6.16101 15.1909C5.34067 15.802 4.73954 16.6617 4.44708 17.642L5.88508 18.07C6.08533 17.3995 6.49665 16.8115 7.05789 16.3935C7.61912 15.9755 8.30029 15.7498 9.00008 15.75V14.25ZM12.0001 20.25C10.8095 20.2514 9.63279 19.9944 8.55116 19.4968C7.46954 18.9993 6.50874 18.273 5.73508 17.368L4.59708 18.344C5.51154 19.413 6.64692 20.272 7.92497 20.8598C9.20301 21.4476 10.5933 21.7513 12.0001 21.75V20.25ZM15.0001 15.75C16.4701 15.75 17.7151 16.728 18.1151 18.07L19.5531 17.642C19.2606 16.6617 18.6595 15.802 17.8391 15.1909C17.0188 14.5797 16.0231 14.2497 15.0001 14.25V15.75ZM18.2651 17.368C17.4914 18.273 16.5306 18.9993 15.449 19.4968C14.3674 19.9944 13.1907 20.2514 12.0001 20.25V21.75C13.4068 21.7513 14.7971 21.4476 16.0752 20.8598C17.3532 20.272 18.4896 19.414 19.4041 18.345L18.2651 17.368Z" fill="#4C4C4C"/>
</svg>
