<svg width="21" height="21" viewBox="0 0 21 21" fill="none" xmlns="http://www.w3.org/2000/svg">
<path d="M6.125 6.125H5.25C4.78587 6.125 4.34075 6.30937 4.01256 6.63756C3.68437 6.96575 3.5 7.41087 3.5 7.875V15.75C3.5 16.2141 3.68437 16.6592 4.01256 16.9874C4.34075 17.3156 4.78587 17.5 5.25 17.5H13.125C13.5891 17.5 14.0342 17.3156 14.3624 16.9874C14.6906 16.6592 14.875 16.2141 14.875 15.75V14.875" stroke="#00A8E1" stroke-width="2" stroke-linecap="round" stroke-linejoin="round"/>
<path d="M14 4.37497L16.625 6.99997M17.8369 5.76185C18.1815 5.41723 18.3751 4.94983 18.3751 4.46247C18.3751 3.97511 18.1815 3.50771 17.8369 3.1631C17.4923 2.81848 17.0249 2.62488 16.5375 2.62488C16.0501 2.62488 15.5827 2.81848 15.2381 3.1631L7.875 10.5V13.125H10.5L17.8369 5.76185Z" stroke="#00A8E1" stroke-width="2" stroke-linecap="round" stroke-linejoin="round"/>
</svg>
