<svg width="14" height="14" viewBox="0 0 14 14" fill="none" xmlns="http://www.w3.org/2000/svg">
<path d="M7.13916 0.195191L13.1392 6.19519C13.5592 6.61519 13.2618 7.33319 12.6678 7.33319H12.0012V11.3332C12.0012 11.8636 11.7905 12.3723 11.4154 12.7474C11.0403 13.1225 10.5316 13.3332 10.0012 13.3332H9.3345V8.66652C9.33453 8.15638 9.13962 7.66551 8.78964 7.29435C8.43967 6.92319 7.96109 6.69979 7.45183 6.66986L7.3345 6.66652H6.00116C5.47073 6.66652 4.96202 6.87724 4.58695 7.25231C4.21188 7.62738 4.00116 8.13609 4.00116 8.66652V13.3332H3.3345C2.80407 13.3332 2.29536 13.1225 1.92028 12.7474C1.54521 12.3723 1.3345 11.8636 1.3345 11.3332V7.33319H0.667832C0.0744986 7.33319 -0.223501 6.61519 0.196499 6.19519L6.1965 0.195191C6.32152 0.0702102 6.49106 0 6.66783 0C6.84461 0 7.01415 0.0702102 7.13916 0.195191ZM7.3345 7.99986C7.51131 7.99986 7.68088 8.0701 7.8059 8.19512C7.93093 8.32014 8.00116 8.48971 8.00116 8.66652V13.3332H5.3345V8.66652C5.33452 8.50324 5.39447 8.34563 5.50297 8.22361C5.61148 8.10159 5.761 8.02363 5.92317 8.00452L6.00116 7.99986H7.3345Z" fill="#666666"/>
</svg>
