<svg width="16" height="13" viewBox="0 0 16 13" fill="none" xmlns="http://www.w3.org/2000/svg">
<path d="M0 6.39271C0 6.1566 0.053125 5.93819 0.159375 5.7375C0.265625 5.53681 0.413194 5.37153 0.602083 5.24167L4.14375 2.70937C4.27361 2.61493 4.40654 2.54693 4.54254 2.50538C4.67854 2.46382 4.81714 2.44328 4.95833 2.44375C5.09953 2.44422 5.23836 2.465 5.37483 2.50608C5.51131 2.54717 5.644 2.61493 5.77292 2.70937L9.31458 5.24167C9.50347 5.37153 9.65104 5.53681 9.75729 5.7375C9.86354 5.93819 9.91667 6.1566 9.91667 6.39271V11.3333C9.91667 11.7229 9.77807 12.0565 9.50088 12.3342C9.22368 12.6119 8.89006 12.7505 8.5 12.75H7.79167C7.40208 12.75 7.0687 12.6114 6.7915 12.3342C6.51431 12.057 6.37547 11.7234 6.375 11.3333V9.5625C6.375 9.26736 6.27182 9.01661 6.06546 8.81025C5.8591 8.60389 5.60811 8.50047 5.3125 8.5H4.60417C4.30903 8.5 4.05828 8.60342 3.85192 8.81025C3.64556 9.01708 3.54214 9.26783 3.54167 9.5625V11.3333C3.54167 11.7229 3.40307 12.0565 3.12588 12.3342C2.84868 12.6119 2.51506 12.7505 2.125 12.75H1.41667C1.02708 12.75 0.693695 12.6114 0.4165 12.3342C0.139306 12.057 0.000472222 11.7234 0 11.3333V6.39271ZM15.5833 1.41667V11.3333C15.5833 11.7229 15.4447 12.0565 15.1675 12.3342C14.8903 12.6119 14.5567 12.7505 14.1667 12.75H12.0417C11.841 12.75 11.6729 12.682 11.5373 12.546C11.4018 12.41 11.3338 12.2419 11.3333 12.0417V5.68437C11.3333 5.44826 11.283 5.22986 11.1825 5.02917C11.0819 4.82847 10.9374 4.66319 10.749 4.53333L7.04792 1.87708C6.89444 1.75903 6.77049 1.61736 6.67604 1.45208C6.5816 1.28681 6.53438 1.12153 6.53438 0.95625C6.53438 0.661111 6.62882 0.428069 6.81771 0.257125C7.0066 0.0861805 7.26042 0.000472222 7.57917 0H14.1667C14.5563 0 14.8899 0.138833 15.1675 0.4165C15.4452 0.694167 15.5838 1.02756 15.5833 1.41667ZM11.6875 4.25H12.3958C12.4903 4.25 12.5729 4.21458 12.6438 4.14375C12.7146 4.07292 12.75 3.99028 12.75 3.89583V3.1875C12.75 3.09306 12.7146 3.01042 12.6438 2.93958C12.5729 2.86875 12.4903 2.83333 12.3958 2.83333H11.6875C11.5931 2.83333 11.5104 2.86875 11.4396 2.93958C11.3688 3.01042 11.3333 3.09306 11.3333 3.1875V3.89583C11.3333 3.99028 11.3688 4.07292 11.4396 4.14375C11.5104 4.21458 11.5931 4.25 11.6875 4.25ZM11.6875 7.08333H12.3958C12.4903 7.08333 12.5729 7.04792 12.6438 6.97708C12.7146 6.90625 12.75 6.82361 12.75 6.72917V6.02083C12.75 5.92639 12.7146 5.84375 12.6438 5.77292C12.5729 5.70208 12.4903 5.66667 12.3958 5.66667H11.6875C11.5931 5.66667 11.5104 5.70208 11.4396 5.77292C11.3688 5.84375 11.3333 5.92639 11.3333 6.02083V6.72917C11.3333 6.82361 11.3688 6.90625 11.4396 6.97708C11.5104 7.04792 11.5931 7.08333 11.6875 7.08333ZM11.6875 9.91667H12.3958C12.4903 9.91667 12.5729 9.88125 12.6438 9.81042C12.7146 9.73958 12.75 9.65694 12.75 9.5625V8.85417C12.75 8.75972 12.7146 8.67708 12.6438 8.60625C12.5729 8.53542 12.4903 8.5 12.3958 8.5H11.6875C11.5931 8.5 11.5104 8.53542 11.4396 8.60625C11.3688 8.67708 11.3333 8.75972 11.3333 8.85417V9.5625C11.3333 9.65694 11.3688 9.73958 11.4396 9.81042C11.5104 9.88125 11.5931 9.91667 11.6875 9.91667Z" fill="white"/>
</svg>
