<svg width="22" height="17" viewBox="0 0 22 17" fill="none" xmlns="http://www.w3.org/2000/svg">
<path d="M2.2 2.25C2.2 1.00898 3.18656 0 4.4 0H14.3C15.5134 0 16.5 1.00898 16.5 2.25V3.375H18.2428C18.8272 3.375 19.3875 3.61055 19.8 4.03242L21.3572 5.625C21.7697 6.04688 22 6.61992 22 7.21758V12.375C22 13.616 21.0134 14.625 19.8 14.625H19.6866C19.3291 15.9223 18.1603 16.875 16.775 16.875C15.3897 16.875 14.2244 15.9223 13.8634 14.625H10.3366C9.97906 15.9223 8.81031 16.875 7.425 16.875C6.03969 16.875 4.87438 15.9223 4.51344 14.625H4.4C3.18656 14.625 2.2 13.616 2.2 12.375V10.6875H0.825C0.367813 10.6875 0 10.3113 0 9.84375C0 9.37617 0.367813 9 0.825 9H4.675C5.13219 9 5.5 8.62383 5.5 8.15625C5.5 7.68867 5.13219 7.3125 4.675 7.3125H0.825C0.367813 7.3125 0 6.93633 0 6.46875C0 6.00117 0.367813 5.625 0.825 5.625H6.875C7.33219 5.625 7.7 5.24883 7.7 4.78125C7.7 4.31367 7.33219 3.9375 6.875 3.9375H0.825C0.367813 3.9375 0 3.56133 0 3.09375C0 2.62617 0.367813 2.25 0.825 2.25H2.2ZM19.8 9V7.21758L18.2428 5.625H16.5V9H19.8ZM8.8 13.7812C8.8 13.4083 8.65513 13.0506 8.39727 12.7869C8.13941 12.5232 7.78967 12.375 7.425 12.375C7.06033 12.375 6.71059 12.5232 6.45273 12.7869C6.19487 13.0506 6.05 13.4083 6.05 13.7812C6.05 14.1542 6.19487 14.5119 6.45273 14.7756C6.71059 15.0393 7.06033 15.1875 7.425 15.1875C7.78967 15.1875 8.13941 15.0393 8.39727 14.7756C8.65513 14.5119 8.8 14.1542 8.8 13.7812ZM16.775 15.1875C17.1397 15.1875 17.4894 15.0393 17.7473 14.7756C18.0051 14.5119 18.15 14.1542 18.15 13.7812C18.15 13.4083 18.0051 13.0506 17.7473 12.7869C17.4894 12.5232 17.1397 12.375 16.775 12.375C16.4103 12.375 16.0606 12.5232 15.8027 12.7869C15.5449 13.0506 15.4 13.4083 15.4 13.7812C15.4 14.1542 15.5449 14.5119 15.8027 14.7756C16.0606 15.0393 16.4103 15.1875 16.775 15.1875Z" fill="#00A8E1"/>
</svg>
