<svg width="14" height="14" viewBox="0 0 14 14" fill="none" xmlns="http://www.w3.org/2000/svg">
<path d="M11.6171 9.65283C11.3109 9.65383 11.0091 9.71383 10.7285 9.82983C10.448 9.94583 10.1952 10.1148 9.98401 10.3268L4.45441 7.67483C4.59094 7.27883 4.59094 6.85283 4.45441 6.45783L9.99255 3.75783C10.3893 4.15882 10.928 4.40383 11.5019 4.44483C12.0768 4.48682 12.6475 4.32183 13.1019 3.98283C13.5574 3.64483 13.8646 3.15583 13.9648 2.61183C14.0651 2.06783 13.9499 1.50783 13.6427 1.03983C13.3365 0.572825 12.8587 0.230825 12.304 0.0818252C11.7483 -0.0661748 11.1563 -0.0121748 10.64 0.233825C10.1248 0.480825 9.72268 0.902825 9.51361 1.41683C9.30454 1.93183 9.30241 2.50283 9.50721 3.01883L4.02347 5.69183C3.728 5.34483 3.32694 5.09382 2.87574 4.97382C2.42454 4.85383 1.94667 4.86983 1.50614 5.02083C1.06561 5.17183 0.68374 5.44882 0.41387 5.81582C0.14507 6.18183 0 6.61983 0 7.06783C0 7.51683 0.14507 7.95383 0.41387 8.32083C0.68374 8.68683 1.0656 8.96483 1.50614 9.11583C1.94667 9.26583 2.42454 9.28283 2.87574 9.16183C3.32694 9.04183 3.72801 8.79082 4.02347 8.44382L9.4944 11.0828C9.4016 11.3208 9.3536 11.5728 9.3536 11.8258C9.3536 12.2558 9.48693 12.6768 9.73547 13.0338C9.98507 13.3908 10.3392 13.6698 10.7531 13.8348C11.168 13.9988 11.6235 14.0418 12.064 13.9578C12.5035 13.8738 12.9077 13.6668 13.2256 13.3628C13.5424 13.0588 13.7579 12.6718 13.8453 12.2498C13.9328 11.8288 13.888 11.3918 13.7163 10.9948C13.5445 10.5968 13.2544 10.2578 12.8811 10.0188C12.5088 9.77983 12.0704 9.65283 11.6213 9.65283H11.6171Z" fill="#0A0C0B" fill-opacity="0.301961"/>
</svg>
