<svg width="20" height="20" viewBox="0 0 20 20" fill="none" xmlns="http://www.w3.org/2000/svg">
<path d="M19.25 9.537H6.895M2.534 9.537H0.75M2.534 9.537C2.534 8.95883 2.76368 8.40434 3.17251 7.99551C3.58134 7.58668 4.13583 7.357 4.714 7.357C5.29217 7.357 5.84666 7.58668 6.25549 7.99551C6.66432 8.40434 6.894 8.95883 6.894 9.537C6.894 10.1152 6.66432 10.6697 6.25549 11.0785C5.84666 11.4873 5.29217 11.717 4.714 11.717C4.13583 11.717 3.58134 11.4873 3.17251 11.0785C2.76368 10.6697 2.534 10.1152 2.534 9.537ZM19.25 16.144H13.502M13.502 16.144C13.502 16.7223 13.2718 17.2774 12.8628 17.6863C12.4539 18.0953 11.8993 18.325 11.321 18.325C10.7428 18.325 10.1883 18.0943 9.77951 17.6855C9.37068 17.2767 9.141 16.7222 9.141 16.144M13.502 16.144C13.502 15.5657 13.2718 15.0116 12.8628 14.6027C12.4539 14.1937 11.8993 13.964 11.321 13.964C10.7428 13.964 10.1883 14.1937 9.77951 14.6025C9.37068 15.0113 9.141 15.5658 9.141 16.144M9.141 16.144H0.75M19.25 2.93H16.145M11.784 2.93H0.75M11.784 2.93C11.784 2.35183 12.0137 1.79734 12.4225 1.38851C12.8313 0.979678 13.3858 0.75 13.964 0.75C14.2503 0.75 14.5338 0.806387 14.7983 0.915943C15.0627 1.0255 15.3031 1.18608 15.5055 1.38851C15.7079 1.59094 15.8685 1.83126 15.9781 2.09575C16.0876 2.36024 16.144 2.64372 16.144 2.93C16.144 3.21628 16.0876 3.49976 15.9781 3.76425C15.8685 4.02874 15.7079 4.26906 15.5055 4.47149C15.3031 4.67392 15.0627 4.8345 14.7983 4.94406C14.5338 5.05361 14.2503 5.11 13.964 5.11C13.3858 5.11 12.8313 4.88032 12.4225 4.47149C12.0137 4.06266 11.784 3.50817 11.784 2.93Z" stroke="#00A8E1" stroke-width="1.5" stroke-miterlimit="10" stroke-linecap="round"/>
</svg>
