<svg width="14" height="11" viewBox="0 0 14 11" fill="none" xmlns="http://www.w3.org/2000/svg">
<path d="M1.275 0C0.936849 0 0.612548 0.13433 0.373439 0.373439C0.13433 0.612548 0 0.936849 0 1.275V7.225C0 7.56315 0.13433 7.88745 0.373439 8.12656C0.612548 8.36567 0.936849 8.5 1.275 8.5H10.625C10.9632 8.5 11.2875 8.36567 11.5266 8.12656C11.7657 7.88745 11.9 7.56315 11.9 7.225V1.275C11.9 0.936849 11.7657 0.612548 11.5266 0.373439C11.2875 0.13433 10.9632 0 10.625 0H1.275ZM3.4 0.85V1.7C3.4 2.15087 3.22089 2.58327 2.90208 2.90208C2.58327 3.22089 2.15087 3.4 1.7 3.4H0.85V2.55H1.7C1.92543 2.55 2.14163 2.46045 2.30104 2.30104C2.46045 2.14163 2.55 1.92543 2.55 1.7V0.85H3.4ZM5.95 5.7375C5.55549 5.7375 5.17714 5.58078 4.89818 5.30182C4.61922 5.02286 4.4625 4.64451 4.4625 4.25C4.4625 3.85549 4.61922 3.47714 4.89818 3.19818C5.17714 2.91922 5.55549 2.7625 5.95 2.7625C6.34451 2.7625 6.72286 2.91922 7.00182 3.19818C7.28078 3.47714 7.4375 3.85549 7.4375 4.25C7.4375 4.64451 7.28078 5.02286 7.00182 5.30182C6.72286 5.58078 6.34451 5.7375 5.95 5.7375ZM0.85 5.95V5.1H1.7C2.15087 5.1 2.58327 5.27911 2.90208 5.59792C3.22089 5.91673 3.4 6.34913 3.4 6.8V7.65H2.55V6.8C2.55 6.57457 2.46045 6.35837 2.30104 6.19896C2.14163 6.03955 1.92543 5.95 1.7 5.95H0.85ZM10.2 5.95C9.97457 5.95 9.75837 6.03955 9.59896 6.19896C9.43955 6.35837 9.35 6.57457 9.35 6.8V7.65H8.5V6.8C8.5 6.34913 8.67911 5.91673 8.99792 5.59792C9.31673 5.27911 9.74913 5.1 10.2 5.1H11.05V5.95H10.2ZM10.2 2.55H11.05V3.4H10.2C9.74913 3.4 9.31673 3.22089 8.99792 2.90208C8.67911 2.58327 8.5 2.15087 8.5 1.7V0.85H9.35V1.7C9.35 1.92543 9.43955 2.14163 9.59896 2.30104C9.75837 2.46045 9.97457 2.55 10.2 2.55ZM12.75 7.225C12.75 7.78858 12.5261 8.32909 12.1276 8.7276C11.7291 9.12612 11.1886 9.35 10.625 9.35H1.77225C1.86018 9.59869 2.02307 9.81399 2.23848 9.96623C2.4539 10.1185 2.71122 10.2001 2.975 10.2H10.625C11.414 10.2 12.1707 9.88656 12.7286 9.32864C13.2866 8.77072 13.6 8.01402 13.6 7.225V2.975C13.6001 2.71122 13.5185 2.4539 13.3662 2.23848C13.214 2.02307 12.9987 1.86018 12.75 1.77225V7.225Z" fill="#6B6B6B"/>
</svg>
