<svg width="20" height="24" viewBox="0 0 20 24" fill="none" xmlns="http://www.w3.org/2000/svg">
<path fill-rule="evenodd" clip-rule="evenodd" d="M2.07787 9.90323L1.17198 9.80061L2.07787 9.90323ZM0.920779 20.5648L1.82667 20.6674L0.920779 20.5648ZM18.4035 20.5648L17.4989 20.6674L18.4035 20.5648ZM17.2464 9.90323L18.1523 9.80061L17.2464 9.90323ZM1.17198 9.80061L0.0148793 20.4621L1.82667 20.6674L2.98377 10.0058L1.17198 9.80061ZM2.39936 23.1888H16.9262V21.3231H2.39936V23.1888ZM19.3094 20.4621L18.1523 9.80061L16.3418 10.0058L17.4989 20.6674L19.3094 20.4621ZM15.7691 7.615H3.55646V9.48077H15.7691V7.615ZM18.1523 9.80061C18.0169 8.55588 16.9913 7.615 15.7691 7.615V9.48077C16.062 9.48077 16.3093 9.70733 16.3418 10.0058L18.1523 9.80061ZM16.9262 23.1888C18.3553 23.1888 19.4669 21.9161 19.3094 20.4621L17.4989 20.6674C17.5366 21.0179 17.2698 21.3231 16.9262 21.3231V23.1888ZM0.0148793 20.4621C-0.142611 21.9161 0.970229 23.1888 2.39936 23.1888V21.3231C2.05575 21.3231 1.78892 21.0179 1.82667 20.6674L0.0148793 20.4621ZM2.98377 10.0058C3.01631 9.70733 3.26231 9.48077 3.55646 9.48077V7.615C2.33428 7.615 1.30734 8.55588 1.17198 9.80061L2.98377 10.0058ZM6.11144 6.26365V5.50268H4.28924V6.26365H6.11144ZM13.2141 5.50269V6.26366H15.0363V5.50269H13.2141ZM9.66213 1.86577C11.6236 1.86577 13.2141 3.49432 13.2141 5.50268H15.0363C15.0363 2.46281 12.6297 0 9.66213 0V1.86577ZM6.11144 5.50269C6.11144 3.49432 7.70066 1.86578 9.66213 1.86578V1e-05C6.69455 1e-05 4.28924 2.46282 4.28924 5.50269H6.11144Z" fill="#00A8E1"/>
</svg>
