<svg width="30" height="22" viewBox="0 0 30 22" fill="none" xmlns="http://www.w3.org/2000/svg">
<path fill-rule="evenodd" clip-rule="evenodd" d="M3.33333 21.992C2.44928 21.992 1.60143 21.6408 0.976311 21.0157C0.351189 20.3906 0 19.5427 0 18.6587V3.33333C0 2.44928 0.351189 1.60143 0.976311 0.97631C1.60143 0.351189 2.44928 0 3.33333 0H18.952C19.8361 0 20.6839 0.351189 21.309 0.97631C21.9341 1.60143 22.2853 2.44928 22.2853 3.33333V6.73333L26.4493 4.25067C26.7529 4.0694 27.0991 3.97185 27.4527 3.96796C27.8062 3.96407 28.1545 4.05399 28.462 4.22853C28.7695 4.40308 29.0252 4.65602 29.2031 4.96159C29.381 5.26716 29.4747 5.61442 29.4747 5.968V16.028C29.4746 16.3814 29.3808 16.7284 29.203 17.0338C29.0252 17.3392 28.7696 17.592 28.4623 17.7665C28.155 17.941 27.807 18.031 27.4536 18.0273C27.1003 18.0235 26.7542 17.9263 26.4507 17.7453L22.284 15.2627V18.6587C22.284 19.5427 21.9328 20.3906 21.3077 21.0157C20.6826 21.6408 19.8347 21.992 18.9507 21.992H3.33333ZM7.372 11.812C7.32 11.6914 7.24474 11.5821 7.15053 11.4906C7.05632 11.399 6.94499 11.3269 6.82292 11.2784C6.70084 11.2299 6.57039 11.2058 6.43904 11.2077C6.30768 11.2096 6.17797 11.2373 6.05733 11.2893C5.93669 11.3413 5.82748 11.4166 5.73592 11.5108C5.64436 11.605 5.57226 11.7163 5.52372 11.8384C5.47519 11.9605 5.45118 12.0909 5.45305 12.2223C5.45493 12.3537 5.48266 12.4834 5.53467 12.604C6.00646 13.7004 6.7892 14.6344 7.78612 15.2907C8.78304 15.947 9.95044 16.2968 11.144 16.2968C12.3376 16.2968 13.505 15.947 14.5019 15.2907C15.4988 14.6344 16.2815 13.7004 16.7533 12.604C16.8053 12.4834 16.8331 12.3537 16.8349 12.2223C16.8368 12.0909 16.8128 11.9605 16.7643 11.8384C16.7157 11.7163 16.6436 11.605 16.5521 11.5108C16.4605 11.4166 16.3513 11.3413 16.2307 11.2893C16.11 11.2373 15.9803 11.2096 15.849 11.2077C15.7176 11.2058 15.5872 11.2299 15.4651 11.2784C15.343 11.3269 15.2317 11.399 15.1375 11.4906C15.0433 11.5821 14.968 11.6914 14.916 11.812C14.5987 12.5492 14.0723 13.1772 13.4019 13.6184C12.7315 14.0597 11.9466 14.2949 11.144 14.2949C10.3414 14.2949 9.55646 14.0597 8.88609 13.6184C8.21572 13.1772 7.68934 12.5492 7.372 11.812ZM6.72933 8.672C7.13476 8.672 7.52358 8.51094 7.81026 8.22426C8.09694 7.93758 8.258 7.54876 8.258 7.14333C8.258 6.73791 8.09694 6.34908 7.81026 6.0624C7.52358 5.77572 7.13476 5.61467 6.72933 5.61467C6.32391 5.61467 5.93508 5.77572 5.6484 6.0624C5.36172 6.34908 5.20067 6.73791 5.20067 7.14333C5.20067 7.54876 5.36172 7.93758 5.6484 8.22426C5.93508 8.51094 6.32391 8.672 6.72933 8.672ZM17.0867 7.14267C17.0867 7.54809 16.9256 7.93692 16.6389 8.2236C16.3523 8.51028 15.9634 8.67133 15.558 8.67133C15.1526 8.67133 14.7638 8.51028 14.4771 8.2236C14.1904 7.93692 14.0293 7.54809 14.0293 7.14267C14.0293 6.73724 14.1904 6.34842 14.4771 6.06174C14.7638 5.77505 15.1526 5.614 15.558 5.614C15.9634 5.614 16.3523 5.77505 16.6389 6.06174C16.9256 6.34842 17.0867 6.73724 17.0867 7.14267Z" fill="#00A8E1"/>
</svg>
