<svg width="19" height="20" viewBox="0 0 19 20" fill="none" xmlns="http://www.w3.org/2000/svg">
<path fill-rule="evenodd" clip-rule="evenodd" d="M4.19672 2.66533C5.09195 1.24111 6.68499 0 9.19325 0C11.7015 0 13.2946 1.24111 14.1898 2.66533C15.0489 4.03219 15.3156 5.61556 15.3156 6.66666H17.0254C17.8943 6.66666 18.5406 7.38244 18.3543 8.13859L15.6674 19.0477C15.5304 19.6038 14.9776 20 14.3385 20H4.04797C3.40895 20 2.85604 19.6038 2.71907 19.0477L0.0321592 8.13859C-0.154079 7.38244 0.492152 6.66666 1.36106 6.66666H3.07092C3.07092 5.61556 3.33758 4.03219 4.19672 2.66533ZM11.8156 3.84981C12.385 4.75569 12.5945 5.89959 12.5945 6.66666H5.79194C5.79194 5.89959 6.00148 4.75569 6.57084 3.84981C7.10418 3.00131 7.89205 2.42424 9.19325 2.42424C10.4944 2.42424 11.2823 3.00131 11.8156 3.84981ZM9.19325 14.2758C10.6879 14.2758 12.0247 13.1966 12.915 12.25L14.6353 13.7827C13.3018 15.1188 11.3579 16.4378 9.19325 16.4378C7.0286 16.4378 5.08463 15.1188 3.75116 13.7827L5.4715 12.25C6.36179 13.1966 7.69861 14.2758 9.19325 14.2758Z" fill="#FFE202"/>
</svg>
