<svg width="18" height="18" viewBox="0 0 18 18" fill="none" xmlns="http://www.w3.org/2000/svg">
<path d="M17.482 17.4819L18.0001 16.9637L13.2151 12.1787L12.697 12.6969L12.1789 13.215L16.9639 18L17.482 17.4819ZM7.91094 15.0888V14.3561C4.35134 14.3561 1.46568 11.4704 1.46568 7.91082H0.73291H0.000137925C0.000137925 12.2798 3.54194 15.8216 7.91094 15.8216V15.0888ZM0.73291 7.91082H1.46568C1.46568 4.35122 4.35134 1.46556 7.91094 1.46556V0.732788V1.58548e-05C3.54194 1.58548e-05 0.000137925 3.54182 0.000137925 7.91082H0.73291ZM7.91094 0.732788V1.46556C11.4705 1.46556 14.3562 4.35122 14.3562 7.91082H15.089H15.8217C15.8217 3.54182 12.2799 1.58548e-05 7.91094 1.58548e-05V0.732788ZM15.089 7.91082H14.3562C14.3562 11.4704 11.4705 14.3561 7.91094 14.3561V15.0888V15.8216C12.2799 15.8216 15.8217 12.2798 15.8217 7.91082H15.089Z" fill="#00A8E1"/>
</svg>
