<svg width="19" height="19" viewBox="0 0 19 19" fill="none" xmlns="http://www.w3.org/2000/svg">
<path d="M18.9201 3.16815L15.6401 16.2883C15.1701 18.1583 13.5701 18.9982 12.1701 18.9982C12.1601 18.9982 12.1501 18.9982 12.1501 18.9982C10.7401 18.9882 9.13009 18.1282 8.69009 16.2382L7.83011 12.5883L13.2101 7.20819C13.6001 6.81819 13.6001 6.17826 13.2101 5.78826C12.8201 5.39826 12.1801 5.39826 11.7901 5.78826L6.41006 11.1681L2.7601 10.3083C0.870098 9.86828 0.0100882 8.25833 8.81944e-05 6.85833C-0.00991181 5.44833 0.83011 3.82833 2.71011 3.35833L15.8301 0.0783028C16.7001 -0.141697 17.6101 0.108225 18.2501 0.748225C18.8901 1.38822 19.1401 2.29815 18.9201 3.16815Z" fill="white"/>
</svg>
