<svg width="12" height="12" viewBox="0 0 12 12" fill="none" xmlns="http://www.w3.org/2000/svg">
<path d="M6.3586 0.23357C6.2906 0.09107 6.1516 0 5.9996 0C5.8476 0 5.7086 0.09107 5.6406 0.23357L4.0036 3.71037L0.342604 4.26751C0.191604 4.29001 0.0666041 4.40144 0.0196041 4.55251C-0.0273959 4.70465 0.0116041 4.87073 0.120604 4.98215L2.7696 7.68859L2.1446 11.5104C2.1186 11.6668 2.1806 11.8265 2.3036 11.9197C2.4266 12.014 2.5896 12.0258 2.7246 11.9518L5.9996 10.1475L9.2746 11.9518C9.4096 12.0258 9.5726 12.014 9.6956 11.9197C9.8186 11.8265 9.8806 11.6668 9.8546 11.5104L9.2296 7.68859L11.8786 4.98215C11.9876 4.87072 12.0276 4.70465 11.9796 4.55251C11.9326 4.40144 11.8076 4.29001 11.6576 4.26751L7.9956 3.71037L6.3586 0.23357Z" fill="#F9CC4A"/>
</svg>
